:FULLY-SPECIFIED
:FORCE-ALL-JOINTS-BE-3DOF
:DEGREES
1053
root 1.20625 15.1596 32.5521 4.89543 -3.40226 3.44971
lfemur 8.79449 0.468011 5.67252
ltibia 0 -0 0
lfoot -30.3855 -11.1916 -1.67606e-05
ltoes -34.2331 0 0
rfemur -31.0566 -15.6745 -6.30626
rtibia 50.0129 -0 0
rfoot -21.8632 5.43341 -6.42516e-06
rtoes -40.95 0 0
lowerback -1.82731 -0.0531334 -0.245657
upperback -0.48219 -0.0330924 -6.04072
thorax 0.526367 -0.0181505 -6.12362
lowerneck -7.0124 0.740618 6.54437
upperneck 1.28345 0.302291 3.66931
head 1.59412 0.277609 0.0564748
lclavicle -0 0 0
lhumerus -58.7026 -46.8686 115.403
lradius 55.8081 -0 0
lwrist 25.5447 0 0
lhand 37.428 25.3084 -4.58559e-06
lfingers 0 -0 0
lthumb 60.2311 38.8437 -9.3836e-06
rclavicle -0 0 0
rhumerus 2.13831 -23.5322 0.626464
rradius 27.4864 -0 0
rwrist -9.7237 0 0
rhand -30.5287 -42.0421 -3.98977e-06
rfingers 0 -0 0
rthumb -3.82805 -71.9877 -3.85914e-06
1054
root 1.20787 15.1601 32.5565 4.89545 -3.39092 3.43557
lfemur 8.808 0.458703 5.68021
ltibia 0 -0 0
lfoot -30.3967 -11.1744 -2.01127e-05
ltoes -34.253 0 0
rfemur -31.0194 -15.6564 -6.30562
rtibia 49.9951 -0 0
rfoot -21.8586 5.41735 -7.71019e-06
rtoes -40.9364 0 0
lowerback -1.84088 -0.0529268 -0.251559
upperback -0.480282 -0.0321094 -6.03382
thorax 0.53607 -0.0174949 -6.11293
lowerneck -7.02924 0.728052 6.53021
upperneck 1.30255 0.283887 3.68168
head 1.603 0.269517 0.0621428
lclavicle -0 0 0
lhumerus -58.6972 -46.8841 115.409
lradius 55.8097 -0 0
lwrist 25.5587 0 0
lhand 37.437 25.3025 -5.5027e-06
lfingers 0 -0 0
lthumb 60.2388 38.8297 -1.12603e-05
rclavicle -0 0 0
rhumerus 2.11006 -23.5186 0.642076
rradius 27.4853 -0 0
rwrist -9.70114 0 0
rhand -30.5308 -42.02 -4.78772e-06
rfingers 0 -0 0
rthumb -3.83005 -71.9656 -4.63096e-06
1055
root 1.2095 15.1605 32.561 4.89546 -3.37957 3.42143
lfemur 8.82151 0.449394 5.68789
ltibia 0 -0 0
lfoot -30.4078 -11.1571 -2.01127e-05
ltoes -34.273 0 0
rfemur -30.9823 -15.6384 -6.30496
rtibia 49.9773 -0 0
rfoot -21.8541 5.4013 -7.71019e-06
rtoes -40.9227 0 0
lowerback -1.85445 -0.0527215 -0.257461
upperback -0.478374 -0.0311266 -6.02692
thorax 0.545773 -0.0168411 -6.10224
lowerneck -7.04608 0.715482 6.51605
upperneck 1.32163 0.265479 3.69404
head 1.61188 0.261425 0.0678096
lclavicle -0 0 0
lhumerus -58.6917 -46.8996 115.415
lradius 55.8112 -0 0
lwrist 25.5726 0 0
lhand 37.446 25.2967 -5.5027e-06
lfingers 0 -0 0
lthumb 60.2464 38.8156 -1.12603e-05
rclavicle -0 0 0
rhumerus 2.08182 -23.5051 0.657679
rradius 27.4843 -0 0
rwrist -9.67858 0 0
rhand -30.5329 -41.9979 -4.78772e-06
rfingers 0 -0 0
rthumb -3.83205 -71.9434 -4.63096e-06
1056
root 1.21112 15.161 32.5654 4.89548 -3.36823 3.40728
lfemur 8.83501 0.440082 5.69557
ltibia 0 -0 0
lfoot -30.419 -11.1399 -1.67606e-05
ltoes -34.2929 0 0
rfemur -30.9451 -15.6203 -6.30429
rtibia 49.9595 -0 0
rfoot -21.8495 5.38524 -6.42516e-06
rtoes -40.9091 0 0
lowerback -1.86802 -0.0525176 -0.263362
upperback -0.476465 -0.030144 -6.02002
thorax 0.555477 -0.0161891 -6.09155
lowerneck -7.06292 0.702908 6.5019
upperneck 1.34072 0.247066 3.7064
head 1.62076 0.253332 0.0734751
lclavicle -0 0 0
lhumerus -58.6863 -46.9151 115.421
lradius 55.8128 -0 0
lwrist 25.5866 0 0
lhand 37.455 25.2908 -4.58559e-06
lfingers 0 -0 0
lthumb 60.2541 38.8016 -9.3836e-06
rclavicle -0 0 0
rhumerus 2.05358 -23.4915 0.673273
rradius 27.4832 -0 0
rwrist -9.65602 0 0
rhand -30.535 -41.9758 -3.98977e-06
rfingers 0 -0 0
rthumb -3.83405 -71.9213 -3.85914e-06
1057
root 1.21274 15.1614 32.5699 4.89548 -3.35689 3.39314
lfemur 8.84852 0.430769 5.70325
ltibia 0 -0 0
lfoot -30.4301 -11.1227 -1.00564e-05
ltoes -34.3129 0 0
rfemur -30.9079 -15.6022 -6.3036
rtibia 49.9418 -0 0
rfoot -21.8449 5.36919 -3.8551e-06
rtoes -40.8955 0 0
lowerback -1.88159 -0.0523151 -0.269264
upperback -0.474557 -0.0291616 -6.01313
thorax 0.56518 -0.015539 -6.08085
lowerneck -7.07976 0.690329 6.48775
upperneck 1.35979 0.22865 3.71875
head 1.62964 0.245238 0.0791393
lclavicle -0 0 0
lhumerus -58.6809 -46.9307 115.427
lradius 55.8143 -0 0
lwrist 25.6006 0 0
lhand 37.4639 25.285 -2.75135e-06
lfingers 0 -0 0
lthumb 60.2617 38.7875 -5.63016e-06
rclavicle -0 0 0
rhumerus 2.02534 -23.4779 0.688858
rradius 27.4822 -0 0
rwrist -9.63347 0 0
rhand -30.537 -41.9538 -2.39386e-06
rfingers 0 -0 0
rthumb -3.83604 -71.8991 -2.31548e-06
1058
root 1.21436 15.1619 32.5743 4.89549 -3.34555 363.379
lfemur 8.86202 0.421454 5.71093
ltibia 4.77083e-15 0 0
lfoot -30.4413 -11.1055 0
ltoes -34.3328 0 0
rfemur -30.8708 -15.5841 -6.30291
rtibia 49.924 0 0
rfoot -21.8403 5.35313 0
rtoes -40.8819 0 0
lowerback -1.89516 -0.052114 -0.275166
upperback -0.472648 -0.0281795 -6.00623
thorax 0.574884 -0.0148906 -6.07016
lowerneck -7.09659 0.677747 6.4736
upperneck 1.37887 0.210229 3.73109
head 1.63852 0.237143 0.0848023
lclavicle 2.28602e-15 -6.36111e-15 0
lhumerus -58.6755 -46.9462 115.433
lradius 55.8159 0 0
lwrist 25.6146 0 0
lhand 37.4729 25.2791 0
lfingers 7.12502 0 0
lthumb 60.2694 38.7735 0
rclavicle 2.28602e-15 -6.36111e-15 0
rhumerus 1.99712 -23.4643 0.704434
rradius 27.4811 0 0
rwrist -9.61091 0 0
rhand -30.5391 -41.9317 0
rfingers 7.12502 0 0
rthumb -3.83804 -791.877 0
1059
root 1.21641 15.1623 32.5782 4.90232 -3.35835 3.36772
lfemur 8.81045 0.439547 5.69057
ltibia 0.134677 -0 0
lfoot -30.5138 -11.0792 -9.9842e-05
ltoes -34.3341 0 0
rfemur -30.8558 -15.5736 -6.3016
rtibia 49.9041 -0 0
rfoot -21.8396 5.36717 5.04091e-07
rtoes -40.8681 0 0
lowerback -1.90378 -0.0513623 -0.283544
upperback -0.475101 -0.0268975 -5.99506
thorax 0.577342 -0.0142589 -6.05347
lowerneck -7.08941 0.679191 6.46597
upperneck 1.36119 0.214486 3.72757
head 1.6315 0.238401 0.085092
lclavicle 0 0 0
lhumerus -58.641 -46.9102 115.42
lradius 55.8054 -0 0
lwrist 25.6113 0 0
lhand 37.4796 25.2912 4.2317e-06
lfingers 0 -0 0
lthumb 60.2751 38.7795 1.78622e-06
rclavicle 0 0 0
rhumerus 1.99504 -23.4432 0.711403
rradius 27.4868 -0 0
rwrist -9.5874 0 0
rhand -30.5537 -41.9285 -2.41349e-06
rfingers 0 -0 0
rthumb -3.85214 -71.8736 -2.53123e-06
1060
root 1.21847 15.1628 32.5822 4.90915 -3.37115 3.35644
lfemur 8.75888 0.457621 5.67019
ltibia 0.269355 -0 0
lfoot -30.5864 -11.0529 -0.000166404
ltoes -34.3354 0 0
rfemur -30.8409 -15.563 -6.3003
rtibia 49.8842 -0 0
rfoot -21.8389 5.38121 8.40152e-07
rtoes -40.8543 0 0
lowerback -1.91241 -0.0506118 -0.291921
upperback -0.477555 -0.0256149 -5.98389
thorax 0.579801 -0.0136278 -6.03679
lowerneck -7.08223 0.680636 6.45834
upperneck 1.34351 0.218742 3.72405
head 1.62449 0.239658 0.0853815
lclavicle 0 0 0
lhumerus -58.6066 -46.8741 115.406
lradius 55.795 -0 0
lwrist 25.608 0 0
lhand 37.4862 25.3033 7.05284e-06
lfingers 0 -0 0
lthumb 60.2808 38.7855 2.97703e-06
rclavicle 0 0 0
rhumerus 1.99296 -23.4222 0.71837
rradius 27.4926 -0 0
rwrist -9.56388 0 0
rhand -30.5683 -41.9254 -4.02249e-06
rfingers 0 -0 0
rthumb -3.86624 -71.8701 -4.21871e-06
1061
root 1.22052 15.1632 32.5861 4.91598 -3.38395 3.34515
lfemur 8.7073 0.475677 5.64979
ltibia 0.404032 -0 0
lfoot -30.6589 -11.0266 -0.000199684
ltoes -34.3367 0 0
rfemur -30.8259 -15.5525 -6.29898
rtibia 49.8643 -0 0
rfoot -21.8382 5.39525 1.00818e-06
rtoes -40.8405 0 0
lowerback -1.92103 -0.0498626 -0.300299
upperback -0.480008 -0.024332 -5.97272
thorax 0.582259 -0.0129975 -6.0201
lowerneck -7.07506 0.682081 6.45071
upperneck 1.32583 0.222997 3.72053
head 1.61747 0.240916 0.0856709
lclavicle 0 0 0
lhumerus -58.5721 -46.8381 115.393
lradius 55.7845 -0 0
lwrist 25.6047 0 0
lhand 37.4929 25.3154 8.46341e-06
lfingers 0 -0 0
lthumb 60.2865 38.7915 3.57244e-06
rclavicle 0 0 0
rhumerus 1.99088 -23.4011 0.725335
rradius 27.4983 -0 0
rwrist -9.54037 0 0
rhand -30.5829 -41.9222 -4.82698e-06
rfingers 0 -0 0
rthumb -3.88034 -71.8667 -5.06245e-06
